<?xml version="1.0" encoding="UTF-8"?>
<svg enable-background="new 0 0 303.7 163.9" version="1.1" viewBox="0 0 303.7 163.9" xml:space="preserve" xmlns="http://www.w3.org/2000/svg">
<style type="text/css">
	.st0{fill-rule:evenodd;clip-rule:evenodd;fill:#5B5B5B;}
</style>
	<path class="st0" d="m189.7 89.5c1.2 0 2.2 1 2.2 2.2s-1 2.2-2.2 2.2c-1.3 0-2.2-1-2.2-2.2-0.1-1.1 0.9-2.2 2.2-2.2zm0-0.5c-1.5 0-2.7 1.2-2.7 2.7s1.2 2.7 2.7 2.7 2.7-1.3 2.7-2.7c-0.1-1.5-1.3-2.7-2.7-2.7zm0.6 2.8c0.3-0.1 0.4-0.3 0.4-0.7 0-0.5-0.3-0.9-1.1-0.9h-1v3h0.6v-1.3h0.6c0.3 0 0.4 0.4 0.4 1 0 0.1 0 0.3 0.1 0.3h0.5c-0.1-0.2-0.1-0.5-0.1-0.9 0.1-0.3-0.2-0.5-0.4-0.5zm-1.1-1.1h0.5c0.4 0 0.5 0.2 0.5 0.3 0 0.3-0.3 0.4-0.6 0.4h-0.4v-0.7z"/>
	<polygon class="st0" points="180.5 90.5 159.8 54.7 147.8 61.6 164.5 90.5"/>
	<polygon class="st0" points="122.5 90.5 138.4 90.5 132.1 79.6 120.1 86.4"/>
	<polygon class="st0" points="143.5 90.5 159.5 90.5 146.1 67.3 134.1 74.2"/>
	<path class="st0" d="m118.7 98.1c2.1 0 4 1.9 4 4s-1.8 4-4 4c-2.1 0-4-1.8-4-4 0-2.1 1.8-4 4-4zm15.8 0c2.1 0 4 1.9 4 4s-1.8 4-4 4-4-1.8-4-4c-0.1-2.1 1.8-4 4-4zm21 0c2.1 0 4 1.9 4 4s-1.8 4-4 4c-2.1 0-4-1.8-4-4 0.1-2.1 1.9-4 4-4zm15.8 0c2.1 0 4 1.9 4 4s-1.8 4-4 4c-2.1 0-4-1.8-4-4 0-2.1 1.8-4 4-4zm-27.8-4.2h3.4v-3.4h-3.4v3.4zm37.8 13.8c1 0.9 2.7 1.6 4.8 1.6s4-0.5 5.1-1.6c0.7-0.8 1.1-1.8 1.1-3.1 0-1.9-1.4-3.3-3.4-3.8-2.2-0.6-5.2-0.5-5.2-1.9 0.1-0.9 1-1.2 2.4-1.2 2.1 0 2.1 1.1 2.2 1.8h3.4c-0.3-2.7-2.4-4.5-5.8-4.5-3.6 0-5.7 2-5.7 4.4 0 1.5 0.8 2.7 1.9 3.4 0.9 0.4 2.1 0.7 3.6 0.9 1.5 0.3 2.7 0.3 2.8 1.4 0 0.7-0.7 1.6-2.2 1.6-2.3-0.1-2.8-1.3-2.8-2.1h-3.6c0.1 1.2 0.6 2.2 1.4 3.1zm-14.7 0c1.3 0.9 2.8 1.6 4.6 1.6 1.5 0 2.9-0.5 4-1.3v0.9h3.4v-13.7h-3.4v1c-1.1-0.8-2.6-1.2-4-1.2-4 0-7.1 3.1-7.1 7-0.1 2.3 1 4.3 2.5 5.7zm-15.7 0c1.2 0.9 2.8 1.6 4.6 1.6 1.5 0 2.9-0.5 4-1.3v0.9h3.4v-18.4h-3.4v5.8c-1.1-0.8-2.5-1.2-4-1.2-4 0-7.1 3.1-7.1 7-0.1 2.2 1 4.2 2.5 5.6zm-7.4 1.3h3.4v-13.8h-3.4v13.8zm-13.7-1.3c1.2 0.9 2.8 1.6 4.6 1.6 1.5 0 2.8-0.5 4-1.3v0.9h3.4v-18.4h-3.4v5.8c-1.2-0.8-2.6-1.2-4-1.2-4 0-7.2 3.1-7.2 7 0 2.2 1 4.2 2.6 5.6zm-3.8 0v-12.5h-3.4v1c-1.2-0.8-2.6-1.2-4.1-1.2-3.9 0-7.1 3.1-7.1 7 0 2.2 1 4.2 2.7 5.6 1.2 0.9 2.8 1.6 4.5 1.6 1.5 0 3-0.5 4.1-1.3v0.9h3.4v-1.1h-0.1z"/>
</svg>
