<?xml version="1.0" encoding="UTF-8"?>
<svg enable-background="new 0 0 303.7 163.9" version="1.1" viewBox="0 0 303.7 163.9" xml:space="preserve" xmlns="http://www.w3.org/2000/svg">
<style type="text/css">
	.st0{fill:#5B5B5B;}
</style>
<path class="st0" d="m169.5 94.8c-8.8 6.5-21.5 9.9-32.4 9.9-15.3 0-29.1-5.7-39.6-15.1-0.8-0.7-0.1-1.8 0.9-1.2 11.3 6.6 25.2 10.5 39.6 10.5 9.7 0 20.4-2 30.2-6.2 1.5-0.6 2.7 1 1.3 2.1z"/>
<path class="st0" d="m173.1 90.6c-1.1-1.4-7.4-0.7-10.2-0.3-0.9 0.1-1-0.6-0.2-1.2 5-3.5 13.2-2.5 14.2-1.3s-0.3 9.4-5 13.4c-0.7 0.6-1.4 0.3-1.1-0.5 1.1-2.7 3.4-8.6 2.3-10.1z"/>
<path class="st0" d="m163.1 64.2v-3.4c0-0.5 0.4-0.9 0.9-0.9h15.3c0.5 0 0.9 0.4 0.9 0.9v2.9c0 0.5-0.4 1.1-1.2 2.2l-7.9 11.3c2.9-0.1 6.1 0.4 8.7 1.9 0.6 0.3 0.8 0.8 0.8 1.3v3.7c0 0.5-0.6 1.1-1.1 0.8-4.7-2.5-11-2.7-16.2 0-0.5 0.3-1.1-0.3-1.1-0.8v-3.5c0-0.6 0-1.5 0.6-2.4l9.2-13.2h-8c-0.5 0.1-0.9-0.3-0.9-0.8z"/>
<path class="st0" d="m107.1 85.6h-4.7c-0.4 0-0.8-0.4-0.8-0.8v-23.9c0-0.5 0.4-0.9 0.9-0.9h4.3c0.5 0 0.8 0.4 0.8 0.8v3.1h0.1c1.1-3 3.3-4.4 6.1-4.4 2.9 0 4.7 1.4 6.1 4.4 1.1-3 3.7-4.4 6.4-4.4 2 0 4.1 0.8 5.4 2.6 1.5 2 1.2 4.9 1.2 7.5v15.1c0 0.5-0.4 0.9-0.9 0.9h-4.7c-0.5 0-0.8-0.4-0.8-0.9v-12.7c0-1 0.1-3.5-0.1-4.5-0.3-1.6-1.4-2.1-2.7-2.1-1.1 0-2.3 0.8-2.8 2s-0.4 3.2-0.4 4.6v12.7c0 0.5-0.4 0.9-0.9 0.9h-4.6c-0.5 0-0.8-0.4-0.8-0.9v-12.7c0-2.7 0.4-6.6-2.9-6.6-3.4 0-3.2 3.8-3.2 6.6v12.7c-0.1 0.5-0.5 0.9-1 0.9z"/>
<path class="st0" d="m193.4 59.5c6.9 0 10.7 5.9 10.7 13.5 0 7.3-4.1 13.1-10.7 13.1-6.8 0-10.5-5.9-10.5-13.4 0-7.4 3.7-13.2 10.5-13.2zm0 4.9c-3.4 0-3.7 4.7-3.7 7.6s0 9.2 3.6 9.2 3.8-5 3.8-8.1c0-2-0.1-4.4-0.7-6.4-0.5-1.7-1.5-2.3-3-2.3z"/>
<path class="st0" d="m213 85.6h-4.6c-0.5 0-0.8-0.4-0.8-0.9v-24c0-0.4 0.4-0.8 0.9-0.8h4.3c0.4 0 0.7 0.3 0.8 0.7v3.7h0.1c1.3-3.3 3.1-4.8 6.4-4.8 2.1 0 4.1 0.8 5.4 2.8 1.2 1.9 1.2 5.1 1.2 7.5v15.1c-0.1 0.4-0.4 0.8-0.9 0.8h-4.7c-0.4 0-0.8-0.3-0.8-0.8v-13c0-2.6 0.3-6.5-2.9-6.5-1.1 0-2.2 0.8-2.7 1.9-0.7 1.5-0.7 2.9-0.7 4.5v12.9c-0.1 0.5-0.5 0.9-1 0.9z"/>
<path class="st0" d="m98 81.2c-0.9-1.2-1.8-2.1-1.8-4.3v-7.3c0-3.1 0.2-5.9-2.1-8-1.8-1.7-4.7-2.3-7-2.3-4.4 0-9.4 1.6-10.4 7.1-0.1 0.6 0.3 0.9 0.7 1l4.5 0.5c0.4-0.1 0.7-0.5 0.8-0.9 0.4-1.9 2-2.8 3.8-2.8 0.9 0 2 0.3 2.6 1.2 0.7 1 0.6 2.3 0.6 3.4v0.6c-2.7 0.3-6.3 0.5-8.8 1.6-2.9 1.2-5 3.8-5 7.6 0 4.9 3.1 7.3 7 7.3 3.3 0 5.1-0.8 7.7-3.4 0.9 1.2 1.1 1.8 2.7 3.1 0.3 0.2 0.8 0.2 1.1-0.1 0.9-0.8 2.6-2.3 3.6-3.1 0.4-0.3 0.3-0.8 0-1.2zm-8.3-7c0 1.8 0 3.3-0.9 4.9-0.7 1.3-1.9 2.1-3.2 2.1-1.8 0-2.8-1.4-2.8-3.4 0-4 3.6-4.7 6.9-4.7v1.1z"/>
<path class="st0" d="m159.1 81.2c-0.9-1.2-1.8-2.1-1.8-4.3v-7.3c0-3.1 0.2-5.9-2.1-8-1.8-1.7-4.7-2.3-7-2.3-4.4 0-9.4 1.6-10.4 7.1-0.1 0.6 0.3 0.9 0.7 1l4.5 0.5c0.4-0.1 0.7-0.5 0.8-0.9 0.4-1.9 2-2.8 3.8-2.8 0.9 0 2 0.3 2.6 1.2 0.7 1 0.6 2.3 0.6 3.4v0.6c-2.7 0.3-6.3 0.5-8.8 1.6-2.9 1.2-5 3.8-5 7.6 0 4.9 3.1 7.3 7 7.3 3.3 0 5.1-0.8 7.7-3.4 0.9 1.2 1.1 1.8 2.7 3.1 0.3 0.2 0.8 0.2 1.1-0.1 0.9-0.8 2.6-2.3 3.6-3.1 0.4-0.3 0.3-0.8 0-1.2zm-8.3-7c0 1.8 0 3.3-0.9 4.9-0.7 1.3-1.9 2.1-3.2 2.1-1.8 0-2.8-1.4-2.8-3.4 0-4 3.6-4.7 6.9-4.7v1.1z"/>
</svg>
