<?xml version="1.0" encoding="UTF-8"?>
<svg enable-background="new 0 0 303.7 163.9" version="1.1" viewBox="0 0 303.7 163.9" xml:space="preserve" xmlns="http://www.w3.org/2000/svg">
<style type="text/css">
	.st0{fill:#5B5B5B;}
</style>
	<path class="st0" d="m134.8 102.3c-5.5-4-12.9-4.7-24.9-0.9-12.8 3.4-17 5.6-22.6 1.2-2.1-2.1-2.9-5.6-2.3-10.6 1.3-8.1 4.9-15.9 11.3-24.6 3.6-4.5 6.9-8.4 11.3-9.9 3.4-1 3 2 2.6 2.4-0.4 0-1.1 0.1-1.7 0.5-0.5 0.4-1.7 1.7-1.8 3.4-0.1 2.6 2.3 2.1 3.4 0.6 1.1-1.6 2.8-4.8 1.5-7.7-0.5-1-1.5-1.8-2.7-2-4-0.3-7.7 1.9-11.2 4.3-7.5 5.9-13.6 14.1-17 23.1-2 5.4-3.7 13.2-1.1 19.5 2.1 4.4 6.3 6.7 11.4 6.2 3.6-0.4 7.9-1.7 10.8-2.5s17.8-6.6 22.7 3.5c0 0 1.6-3.6 5.7-3.7 3.3-0.3 8.2 1.1 11.7 4-1-1.9-4.3-4.8-7.1-6.8z"/>
	<path class="st0" d="m111.4 68.4c-2.8-2.1-8.4 1.9-12.9 8.7-4.1 6.1-5.9 13.2-3.9 16.4 2.9 3.9 8.2-1.8 10.5-4.8l0.3-0.3c1.5-1.9 2.7-4.1 3.9-6.3 0 0 1.1-2 1.1-2.1 0.7-0.1 1.4-0.3 2.3-0.6 0 0-3.4 6.5-3.1 9.7 0.1 1 0 4.5 3.1 5.6 4.1 0.8 7.4-2.8 10.3-6l0.8-0.8c-0.1 0.3-0.2 0.7-0.2 0.7-1.2 4.7 0.4 5.7 1.4 6.1 3.1 1 6.7-4 6.7-4-0.1 1.6-0.4 2.9 1.1 3.9 1.4 0.6 2.8-0.3 3.9-1.1 3.9-3.1 7-7.9 9.5-12h-1.6s-3.9 6.4-6.5 7.8c0 0-0.5 0.3-0.7 0-0.3-0.3-0.2-1 0-1.5l9.9-19.4h-4.6l-0.5 1s-0.1-0.2-0.2-0.2c-2.9-4.5-9.4 2.4-14.3 10.5-1.9 3.1-4.3 6.6-6.8 9.1 0 0-3.7 3.8-5.3 1.1-0.6-1.2-0.4-2.8-0.1-4 1.8-5.9 5-11.3 8.6-14.5 1-0.9 2.1-1.2 2.7-0.8 0.5 0.4 0.6 1.2 0.3 1.8-0.8 0-1.5 0.3-2.1 0.9-1.1 1.3-1.5 2.5-1.1 3.7 1.7 2.7 5-2.6 4.8-5.8-0.1-1.2-0.6-2.3-1.4-2.8-1.2-0.8-3.1-0.6-4.3 0-1.6 0.7-4.1 3.1-5.6 4.9-1.9 2.3-5.1 4.9-6.1 4.6 0.3-0.9 3-7.2 0.1-9.5zm22.4 9.2c0.9-1.4 3.5-5.2 4.2-5.8 2.2-2.1 3-1.2 3.1-0.5-2 4.1-4.4 8.8-6.6 13l-0.7 1.2c-1 1.7-2 3.2-3.6 4.2-0.2 0.1-0.6 0.1-0.9-0.1s-0.4-0.6-0.4-1c0.1-1.4 1.3-5.4 4.9-11zm-25.2 2.5s0 0.1-0.1 0.2l-2 3.7c-1.2 1.8-2.7 4.2-4.6 5.3-0.6 0.2-1.3 0.3-1.7-0.2-0.8-1.1-0.4-2.7-0.1-4l0.1-0.5c1-3.1 2.6-5.8 4.2-8.4h0.1c1 2.1 2.8 3.1 4.2 3.6-0.1 0.1-0.1 0.2-0.1 0.3zm1.9-4.4-0.9 2.3c-0.1 0.1-0.3 0.1-0.6 0l-0.4-0.1c-1.3-0.4-2.2-1.4-2.5-2.5-0.4-2.2 1.3-3.9 2-4.5 0.7-0.5 1.8-0.8 2.4-0.3 0.4 0.5 0.5 1.2 0.5 1.9 0.1 1-0.2 2.2-0.5 3.2z"/>
	<path class="st0" d="m169.2 82.8c-0.4-1.1-1.5-1.8-2.6-1.7-3.7 0.4-7.3 3.8-9.2 8.7-1 2.5-1.5 4.6-1.9 7.9 1.1-1.5 3.5-3.9 6.1-5.3 0 0 0.4-3.2 2.2-6 0.7-1.2 2.1-3.1 3.7-2.6 1.4 0.5 0.9 4.8-0.9 8.9-1.3 3-3.4 6.1-5.5 8.2-1.8 1.8-4.6 3.9-6.9 2.3-1.5-1-2.3-3.1-2.1-5.8 0.7-7.7 3.8-14.2 8.2-21.7 4.6-6.9 9.6-14 16.4-17.8 1.4-0.8 2.7-1 3.8-0.5 0 0-6.4 4-9.4 11.3-0.8 1.9-1.8 4.4-0.8 6.6 0.6 1.2 1.6 1.2 2.4 1.2 3.7-1 6.1-4.9 8.1-8.5 1.1-2.7 2.1-5.4 2.1-8.5v-1.2c1.8-1.1 5.4 0.8 5.4 0.8 2.8 1.1 8.9 6.3 10.9 7.3 1-1.3 2.6-3.3 3.6-4.3l-1.3-0.9c-2.1-1.5-4.4-2.9-6.6-4.3-5.1-3.1-9.2-2-11.3-1.2l-1.6 0.6c-1.6-1.9-4.1-1.7-6-1.2-6.7 2.2-13 7.5-19.7 16.8-4.9 7.3-8 13.5-9.6 19.7-1.3 4.2-1.6 10.3 1.4 13.9 2.6 3.1 6.1 2.4 8.5 1.3 5.3-3 10.1-9.3 12.4-16.6 0.6-2 1.2-5.1 0.2-7.4zm12.2-23c-0.7 9.1-7 14.5-8.5 14.9-0.9 0.2-2.5-0.3-1.1-4.1 2.1-5.1 5.7-9.5 9.5-11.8 0.1 0.4 0.1 0.7 0.1 1z"/>
	<path class="st0" d="m218.5 61c-3.4 2.2-6.9 3.6-11.1 3.1-1.2 1.5-2.3 3-3.4 4.6 5.9 1.7 12.2-2.1 15.7-5.7 3.7-3.6 5.6-8.2 5.6-8.2s-2.7 3.5-6.8 6.2z"/>
	<polygon class="st0" points="154.9 68.5 150.5 68.5 148 73.2 152.4 73.2"/>
	<path class="st0" d="m207.4 102.7c-0.5 0.4-1.1 0.1-0.9-0.8 0.6-2.1 3.1-6.5 3.1-6.5l6.9-13.8h-4.7c-0.2 0.5-0.7 1.4-0.7 1.4-0.2-0.4-0.9-1.3-1.1-1.5-1.2-0.8-2.8-0.4-4 0.3-5.1 3.4-8.8 10-11.7 15.1 0 0-3.1 5.7-4.8 6.2-1.3 0.1-1.2-1.9-1.1-2.4 0.5-3.4 1.7-6.7 2.9-9.6 2.4-1.9 5.2-4.4 7.8-7.2 5.5-6 10.1-12.7 10.8-14.2 0 0-0.7 0.2-1.6 0.2-4.2 6.7-12.9 16.4-15.5 17.8 1.2-3.2 8.7-18.3 15.1-25.5l1-1.1c1.6-1.7 3.2-3.5 4.4-3.8 0.1 0 0.3 0 0.5 0.4 0.1 1.3-0.4 2.3-0.9 3.5l-0.7 1.6s1-0.2 1.7-0.5c0.8-1.6 1.6-3.5 1.3-5.6-0.1-0.7-0.6-1.2-1.1-1.4-1.9-0.4-4 1.2-5.7 2.5h-0.1c-8.6 7.6-15.9 18.6-22.2 33.6-0.5 0.4-2.2 0.9-2.5 0.6 0.6-1.5 1.4-3.4 1.8-5.6 0.1-0.6 0.1-1.2 0.1-1.8 0-1.3-0.3-2.5-1.3-3.4-1.2-0.7-2.7-0.4-3.7 0.2-4.5 2.1-7.9 7.4-10.4 11.7-1.3 2.8-2.6 5.7-3 9.1-0.3 2.6 0.3 4.4 1.6 5.2 1.4 0.8 3.1 0 3.8-0.4 4.6-2.7 7.8-8.2 10.3-13.3 0.1 0 1.5-0.1 2.5-0.4-0.1 0.2-0.6 2.1-0.6 2.1-1.6 5.3-2.3 9-0.8 11.1 2.2 3 5.8-0.1 8.7-4.2-0.6 5 1.6 5.7 3.4 5.4 2-0.6 4.2-3 5.2-4.2-0.3 1.4-0.2 4 1.6 4.3 1.2 0.3 2.2-0.5 3.2-1.1 3.9-2.4 8.5-10.3 9.7-12.5h-1.7c-1.7 2.9-3.9 6.7-6.6 8.5zm-34.6-0.5c-0.2-0.4-0.3-0.9-0.3-1.4 0-3 2.8-8.3 4.8-11.3 0.8 2.2 2.7 3.4 3.9 4-1.5 3.6-6.4 11.3-8.4 8.7zm9.2-10.3c-0.1 0.1-2.5-0.8-3-3.3-0.4-2.2 0.9-3.9 2.2-4.7 0.5-0.5 1.4-0.7 2-0.4 0.6 0.4 0.7 1.2 0.7 2 0 0.5-0.1 1-0.1 1.5v0.1c-0.5 1.7-1.1 3.4-1.8 4.8zm19.2 9.3-0.5 0.5c-0.6 0.7-1.3 1.4-2.1 1-0.2-0.1-0.4-0.4-0.4-0.7 0-1.9 0.7-3.6 1.4-5.3l0.2-0.4c2.1-3.9 4.5-8.6 8-11.8 0.6-0.5 1.2-0.9 1.9-0.6 0.2 0.2 0.3 0.5 0.3 0.7 0 0.1-0.1 0.3-0.1 0.4-1 1.8-1.9 3.7-2.9 5.5-1.6 3.7-3.5 7.4-5.8 10.7z"/>
</svg>
